<?xml version="1.0" encoding="UTF-8"?>
<svg version="1.1" xmlns="http://www.w3.org/2000/svg" width="1587" height="2245">
<path d="M0 0 C523.71 0 1047.42 0 1587 0 C1587 740.85 1587 1481.7 1587 2245 C1063.29 2245 539.58 2245 0 2245 C0 1504.15 0 763.3 0 0 Z " fill="#F3EBDD" transform="translate(0,0)"/>
<path d="M0 0 C0 84.81 0 169.62 0 257 C-5.61 257.99 -11.22 258.98 -17 260 C-30.12066084 262.61025705 -42.70354083 265.68062469 -55 271 C-55.69432129 271.29777344 -56.38864258 271.59554688 -57.10400391 271.90234375 C-75.91997765 280.08209513 -92.36006516 291.45557763 -107.3125 305.5 C-109.43363151 307.47314559 -111.57581042 309.35021927 -113.8125 311.1875 C-117.63687204 314.43270031 -120.78389319 318.16415658 -124 322 C-125.09248047 323.26070312 -125.09248047 323.26070312 -126.20703125 324.546875 C-136.2286048 336.26839236 -145.24897597 348.83145504 -153.37329102 361.93701172 C-154.22592735 363.3058951 -155.10942457 364.65549049 -156 366 C-156.33 366 -156.66 366 -157 366 C-157.18346104 332.1648635 -157.32425419 298.32985163 -157.40852264 264.49432749 C-157.41852724 260.49182299 -157.42888192 256.48931946 -157.43945312 252.48681641 C-157.44155161 251.69005324 -157.44365009 250.89329006 -157.44581217 250.07238255 C-157.48053999 237.20306901 -157.54357025 224.33404391 -157.61722237 211.46490099 C-157.69226626 198.24142696 -157.7365189 185.01810309 -157.75270796 171.79442489 C-157.76363741 163.64690041 -157.79804366 155.50019144 -157.86333174 147.35291825 C-157.90590669 141.75169694 -157.91833686 136.15089178 -157.90801102 130.54952075 C-157.90293034 127.32648724 -157.91472289 124.10515064 -157.9536438 120.88230896 C-158.13077132 105.44804935 -156.85943261 93.46637161 -149 80 C-148.05840405 78.35563807 -148.05840405 78.35563807 -147.09778595 76.67805672 C-124.82919157 39.35355854 -84.46581416 14.4869043 -43 4 C-28.50135899 0.72890427 -15.09957755 0 0 0 Z " fill="#FE7222" transform="translate(984,719)"/>
<path d="M0 0 C2.69022748 -0.02114348 5.38028548 -0.03648478 8.07055664 -0.04858398 C9.20042873 -0.05835392 9.20042873 -0.05835392 10.35312653 -0.06832123 C17.18378615 -0.09129443 23.72164424 0.68121836 30.4375 1.9375 C32.22184448 2.26911133 32.22184448 2.26911133 34.04223633 2.60742188 C61.2864911 8.01195565 88.32172759 19.4110837 110 37 C110.57218262 37.45697266 111.14436523 37.91394531 111.73388672 38.38476562 C123.77372764 48.07432995 134.71228627 58.87935981 143 72 C143.35690918 72.55413574 143.71381836 73.10827148 144.08154297 73.67919922 C145.27888814 75.5472585 146.4547067 77.42738933 147.625 79.3125 C147.98553467 79.8801709 148.34606934 80.4478418 148.7175293 81.03271484 C149.8998132 82.98352368 150.94771366 84.97578193 152 87 C152.63840458 88.16003304 152.63840458 88.16003304 153.28970623 89.34350109 C158.74027031 100.96937663 157.66245587 113.33159773 157.56762695 125.89379883 C157.56621504 128.5163724 157.56701126 131.13894795 157.56983948 133.76152039 C157.57244844 139.38667091 157.55689621 145.01152919 157.52865028 150.63660622 C157.48783958 158.76925234 157.47497522 166.90175862 157.46871033 175.03449603 C157.45779454 188.23246852 157.42459448 201.43028561 157.37719727 214.62817383 C157.33123108 227.4409915 157.29587384 240.2537668 157.2746582 253.06665039 C157.27334459 253.85777581 157.27203097 254.64890123 157.27067754 255.46400014 C157.26415188 259.43324458 157.25783345 263.40248932 157.25161803 267.37173426 C157.19986967 300.24793593 157.11187889 333.12394709 157 366 C154.70481152 363.14447917 152.45161276 360.30111504 150.37109375 357.28515625 C149.89929688 356.60622314 149.4275 355.92729004 148.94140625 355.2277832 C148.44511719 354.51323975 147.94882812 353.79869629 147.4375 353.0625 C115.44188967 307.43640678 74.60424816 270.93167546 18.03491211 260.91137695 C15.99117503 260.55937503 13.94697798 260.21003398 11.90234375 259.86328125 C10.84849487 259.68236938 9.794646 259.50145752 8.7088623 259.31506348 C6.13963461 258.87435388 3.5700227 258.43604514 1 258 C0.86699469 235.28742732 0.73655562 212.57484104 0.60884857 189.86223793 C0.54944339 179.30675204 0.48930984 168.7512714 0.42724609 158.19580078 C0.11764898 105.46328964 -0.08217455 52.73346927 0 0 Z " fill="#FE7222" transform="translate(661,719)"/>
<path d="M0 0 C12.87 0 25.74 0 39 0 C39 71.94 39 143.88 39 218 C45.27 218 51.54 218 58 218 C64.12695292 219.13306664 70.01374856 220.37861172 76 222 C77.4009708 222.3544469 78.80201158 222.70861729 80.203125 223.0625 C111.09481373 231.18960743 136.1937483 249.2704383 159 271 C160.27423828 272.19496094 160.27423828 272.19496094 161.57421875 273.4140625 C181.06186252 292.19807078 195.7797103 316.24931978 204 342 C204 342.99 204 343.98 204 345 C199.91686643 345.95112994 196.07076707 346.1356585 192.29589844 344.06542969 C189.05005743 341.87113387 186.00152191 339.43067352 182.921875 337.01171875 C177.56995452 332.81478408 171.7740247 329.46279495 165.8828125 326.08837891 C164.02187437 325.0126447 162.18240248 323.90627676 160.34375 322.79296875 C148.78750351 315.90842849 136.50644711 310.89211869 124 306 C122.83766846 305.54149658 122.83766846 305.54149658 121.65185547 305.07373047 C99.27249696 296.35550186 75.67111947 292.36173951 52 289 C50.66557861 288.80664062 50.66557861 288.80664062 49.30419922 288.609375 C32.94730483 286.31510804 16.52011155 286.50060944 0 286 C0 191.62 0 97.24 0 0 Z " fill="#FE7222" transform="translate(614,769)"/>
<path d="M0 0 C12.87 0 25.74 0 39 0 C39 94.38 39 188.76 39 286 C27.78 286.66 16.56 287.32 5 288 C-32.95013789 291.95020023 -69.28927049 298.72004561 -104 315 C-104.83724609 315.38913574 -105.67449219 315.77827148 -106.53710938 316.17919922 C-121.79729595 323.33717682 -136.46094884 331.59139452 -149.5625 342.25 C-154.20783484 345.88633404 -157.36705368 346.89760317 -163.234375 346.31640625 C-163.81703125 346.21199219 -164.3996875 346.10757812 -165 346 C-160.09427664 317.74979998 -139.6507188 292.62001456 -120 273 C-119.24203125 272.195625 -118.4840625 271.39125 -117.703125 270.5625 C-109.87728238 262.38773447 -101.14721723 255.63627615 -92 249 C-91.21681396 248.42701172 -90.43362793 247.85402344 -89.62670898 247.26367188 C-70.11729022 233.25671256 -47.64504857 224.05436361 -24 220 C-22.72125 219.773125 -21.4425 219.54625 -20.125 219.3125 C-13.43502808 218.80568395 -6.70914203 219 0 219 C0 146.73 0 74.46 0 0 Z " fill="#FE7222" transform="translate(992,767)"/>
<path d="M0 0 C12.54 0 25.08 0 38 0 C38 93.39 38 186.78 38 283 C-37.9 283 -113.8 283 -192 283 C-190.59807894 275.99039469 -187.15796883 272.46794452 -181.39892578 268.4765625 C-180.52083252 267.90035156 -180.52083252 267.90035156 -179.625 267.3125 C-178.9841748 266.89097656 -178.34334961 266.46945312 -177.68310547 266.03515625 C-130.79792085 236.2320008 -76.46355175 226.57137757 -22.125 222.875 C-20.83416504 222.78718262 -19.54333008 222.69936523 -18.21337891 222.60888672 C-16.99054199 222.52912598 -15.76770508 222.44936523 -14.5078125 222.3671875 C-13.42129395 222.29612793 -12.33477539 222.22506836 -11.21533203 222.15185547 C-7.80560428 221.99081897 -4.41305709 221.99018102 -1 222 C-1.00138269 220.29292043 -1.00138269 220.29292043 -1.00279331 218.55135441 C-1.02495944 190.90335373 -1.04140984 163.25535421 -1.05181217 135.60734653 C-1.05697593 122.23716967 -1.06398987 108.86699918 -1.07543945 95.49682617 C-1.08538387 83.84800794 -1.09185285 72.19919395 -1.09408849 60.55037159 C-1.09539601 54.37825206 -1.09848446 48.20614466 -1.10573006 42.03402901 C-1.11248646 36.23195702 -1.11461774 30.42990224 -1.11310768 24.62782669 C-1.11338418 22.49160735 -1.11539154 20.35538748 -1.11920547 18.21917152 C-1.1241368 15.31618249 -1.12300037 12.41325954 -1.12025452 9.51026917 C-1.12462378 8.22478907 -1.12462378 8.22478907 -1.12908131 6.91333967 C-1.11412121 1.11412121 -1.11412121 1.11412121 0 0 Z " fill="#FE7323" transform="translate(1041,839)"/>
<path d="M0 0 C0 73.26 0 146.52 0 222 C3.63 222 7.26 222 11 222 C14.29997515 222.1831584 17.57899963 222.39434269 20.87109375 222.6640625 C21.77942963 222.73639603 22.6877655 222.80872955 23.62362671 222.883255 C26.56234599 223.12223173 29.49999152 223.37158791 32.4375 223.625 C33.44678558 223.71169952 34.45607117 223.79839905 35.49594116 223.88772583 C49.34915046 225.09961696 63.0938169 226.65313925 76.8125 228.9375 C77.87439041 229.11010345 77.87439041 229.11010345 78.95773315 229.28619385 C94.42913555 231.83764915 109.14346811 236.49174866 123.875 241.8125 C125.67771362 242.46206665 125.67771362 242.46206665 127.5168457 243.12475586 C178.40480729 261.6390587 178.40480729 261.6390587 191 279 C191 279.99 191 280.98 191 282 C115.1 282 39.2 282 -39 282 C-39 189.27 -39 96.54 -39 1 C-26.00914058 0.40950639 -13.0042728 0 0 0 Z " fill="#FE7223" transform="translate(605,840)"/>
<path d="M0 0 C11.818125 -0.061875 11.818125 -0.061875 23.875 -0.125 C26.34210449 -0.14320801 28.80920898 -0.16141602 31.35107422 -0.18017578 C33.33560978 -0.18602427 35.32014776 -0.19111898 37.3046875 -0.1953125 C38.31152588 -0.20554443 39.31836426 -0.21577637 40.35571289 -0.22631836 C50.10441604 -0.22868973 59.25956484 0.52878169 67 7 C70.18172165 10.31368245 70.43221968 12.84448416 70.4375 17.375 C70.30542175 22.98518089 69.85720102 25.92851003 66 30 C63.75 31.875 63.75 31.875 62 33 C62.78375 33.5775 63.5675 34.155 64.375 34.75 C69.72964639 39.33969691 69.4693597 44.27855621 70 51 C63.4 51 56.8 51 50 51 C49.08854167 48.49348958 48.17708333 45.98697917 47.265625 43.48046875 C45.30552243 39.6389097 43.0236325 38.34121083 39 37 C37.66636297 36.85596652 36.32781954 36.75409577 34.98828125 36.68359375 C33.85229492 36.62075195 33.85229492 36.62075195 32.69335938 36.55664062 C31.90767578 36.51732422 31.12199219 36.47800781 30.3125 36.4375 C29.51521484 36.39431641 28.71792969 36.35113281 27.89648438 36.30664062 C25.93118553 36.20072632 23.96561504 36.09987449 22 36 C22 40.95 22 45.9 22 51 C14.74 51 7.48 51 0 51 C0 34.17 0 17.34 0 0 Z " fill="#FE7324" transform="translate(1098,1184)"/>
<path d="M0 0 C11.818125 -0.061875 11.818125 -0.061875 23.875 -0.125 C26.34210449 -0.14320801 28.80920898 -0.16141602 31.35107422 -0.18017578 C33.33560978 -0.18602427 35.32014776 -0.19111898 37.3046875 -0.1953125 C38.31152588 -0.20554443 39.31836426 -0.21577637 40.35571289 -0.22631836 C50.19352229 -0.2287114 59.15393133 0.58391027 67 7 C70.6445376 10.8723212 70.49958418 15.1813591 70.35546875 20.2734375 C69.69869494 25.31110918 67.62905569 28.59720204 63.75 31.9375 C63.1725 32.288125 62.595 32.63875 62 33 C62.78375 33.556875 63.5675 34.11375 64.375 34.6875 C69.78993632 39.45780104 69.17434984 43.56914854 70 51 C63.4 51 56.8 51 50 51 C48.86067708 48.23307292 47.72135417 45.46614583 46.58203125 42.69921875 C44.66119597 39.42194177 43.5167559 38.43695402 40 37 C36.89798755 36.52619723 33.82157531 36.39907667 30.6875 36.3125 C29.85154297 36.27833984 29.01558594 36.24417969 28.15429688 36.20898438 C26.10332228 36.12694539 24.05168462 36.0617849 22 36 C22 40.95 22 45.9 22 51 C14.74 51 7.48 51 0 51 C0 34.17 0 17.34 0 0 Z " fill="#FE7324" transform="translate(633,1184)"/>
<path d="M0 0 C24.97163095 -1.38731283 24.97163095 -1.38731283 29.63671875 2.0625 C32.14042707 4.90084245 34.0597795 7.75417279 36 11 C37.49435862 12.85497641 39.01531375 14.68885123 40.5625 16.5 C42.026875 18.315 43.49125 20.13 45 22 C49.455 27.445 49.455 27.445 54 33 C54.33 22.11 54.66 11.22 55 0 C61.93 0 68.86 0 76 0 C76 16.83 76 33.66 76 51 C51.24981131 52.76787062 51.24981131 52.76787062 45.91796875 48.26953125 C43.2727866 45.3945994 41.16479412 42.20859717 39.15869141 38.86425781 C37.39650065 36.02900947 35.28836643 33.6047211 33.125 31.0625 C32.46757813 30.24910156 31.81015625 29.43570312 31.1328125 28.59765625 C28.47185562 25.35674723 25.72899589 22.18382854 23 19 C22.67 29.56 22.34 40.12 22 51 C14.74 51 7.48 51 0 51 C0 34.17 0 17.34 0 0 Z " fill="#FE7323" transform="translate(712,1184)"/>
<path d="M0 0 C12.313125 -0.0928125 12.313125 -0.0928125 24.875 -0.1875 C28.73227783 -0.22846802 28.73227783 -0.22846802 32.66748047 -0.27026367 C34.73404472 -0.2790357 36.80061421 -0.28667794 38.8671875 -0.29296875 C39.91720947 -0.30831665 40.96723145 -0.32366455 42.04907227 -0.33947754 C51.47944408 -0.34278335 59.46174547 0.94508305 66.625 7.40234375 C69.99796915 11.32150393 70.37750287 14.73588336 70.25390625 19.75390625 C69.65361912 25.06413853 66.88659246 28.56865526 63 32 C50.40186627 38.45853691 34.65490811 36.34089923 21 36 C21 40.95 21 45.9 21 51 C14.07 51 7.14 51 0 51 C0 34.17 0 17.34 0 0 Z " fill="#FE7223" transform="translate(868,1184)"/>
<path d="M0 0 C7.26 0 14.52 0 22 0 C22 6.6 22 13.2 22 20 C30.91 20 39.82 20 49 20 C49 13.4 49 6.8 49 0 C56.26 0 63.52 0 71 0 C71 16.83 71 33.66 71 51 C63.74 51 56.48 51 49 51 C49 44.07 49 37.14 49 30 C40.09 30 31.18 30 22 30 C22 36.93 22 43.86 22 51 C14.74 51 7.48 51 0 51 C0 34.17 0 17.34 0 0 Z " fill="#FE7426" transform="translate(946,1184)"/>
<path d="M0 0 C1.02029297 -0.01998047 2.04058594 -0.03996094 3.09179688 -0.06054688 C11.37738675 -0.05525933 17.92516726 1.82918153 24.9375 6.25 C27.83958956 9.23744513 31.0625 13.10768023 31.0625 17.4375 C27.33348186 17.52486736 23.60472835 17.57801482 19.875 17.625 C18.29235352 17.66270508 18.29235352 17.66270508 16.67773438 17.70117188 C15.14536133 17.71567383 15.14536133 17.71567383 13.58203125 17.73046875 C12.64464111 17.7461792 11.70725098 17.76188965 10.74145508 17.77807617 C7.55855065 17.3734328 5.74064876 16.15094675 3.0625 14.4375 C-0.91664475 14.03146482 -3.52001778 14.33443402 -6.9375 16.4375 C-6.9375 17.0975 -6.9375 17.7575 -6.9375 18.4375 C-6.1125 18.46328125 -5.2875 18.4890625 -4.4375 18.515625 C2.4284808 18.8527937 8.8898955 19.62870705 15.5625 21.25 C16.21992187 21.40307617 16.87734375 21.55615234 17.5546875 21.71386719 C23.34033128 23.20455602 27.71560259 25.41715389 31.0625 30.4375 C31.75302718 36.306981 30.61075349 40.77272941 27.0625 45.4375 C18.9344513 52.42422877 11.1810391 53.7834114 0.75 53.75 C-0.24451172 53.76611328 -1.23902344 53.78222656 -2.26367188 53.79882812 C-10.85754188 53.80447085 -18.47347804 52.26261088 -25.4296875 46.97265625 C-27.90129625 44.45622558 -30.9375 40.12714357 -30.9375 36.4375 C-26.97922765 36.37964353 -23.0210633 36.34395283 -19.0625 36.3125 C-17.93457031 36.29574219 -16.80664062 36.27898437 -15.64453125 36.26171875 C-14.56816406 36.25527344 -13.49179687 36.24882813 -12.3828125 36.2421875 C-11.38781738 36.23171387 -10.39282227 36.22124023 -9.36767578 36.21044922 C-6.9375 36.4375 -6.9375 36.4375 -4.9375 38.4375 C-2.60511933 38.83251229 -2.60511933 38.83251229 0 38.8125 C1.31291016 38.85503906 1.31291016 38.85503906 2.65234375 38.8984375 C5.23442133 38.65670915 5.23442133 38.65670915 6.87890625 36.4140625 C7.26949219 35.76179688 7.66007813 35.10953125 8.0625 34.4375 C6.83015625 34.40011719 5.5978125 34.36273437 4.328125 34.32421875 C-20.92977129 33.39158019 -20.92977129 33.39158019 -28.9375 26.4375 C-31.53293534 23.01624433 -31.36212042 19.61293415 -30.9375 15.4375 C-28.33689681 9.63615443 -24.95087573 5.28197841 -19.06494141 2.5769043 C-12.6739611 0.27349159 -6.75438481 -0.04675786 0 0 Z " fill="#FE7425" transform="translate(827.9375,1182.5625)"/>
<path d="M0 0 C3.85825315 0.28878048 6.87905017 0.67921088 9.96801758 3.11547852 C13.62691639 7.45116137 16.00340868 12.54253581 18.49584961 17.60473633 C21.45889329 23.26611902 25.07278839 28.53567307 28.57543945 33.87280273 C32.56112849 40.0427527 36.51660634 46.19511435 40.07543945 52.62280273 C36.4927217 52.79719863 32.91109343 52.90367932 29.32543945 52.99780273 C28.3096582 53.04807617 27.29387695 53.09834961 26.24731445 53.15014648 C23.4051215 53.2062424 20.86234755 53.19042198 18.07543945 52.62280273 C14.07543945 48.33378539 14.07543945 48.33378539 14.07543945 44.62280273 C2.85543945 44.62280273 -8.36456055 44.62280273 -19.92456055 44.62280273 C-20.58456055 46.60280273 -21.24456055 48.58280273 -21.92456055 50.62280273 C-23.92456055 52.62280273 -23.92456055 52.62280273 -26.0793457 52.84985352 C-26.94865723 52.83937988 -27.81796875 52.82890625 -28.71362305 52.81811523 C-29.65463867 52.81166992 -30.5956543 52.80522461 -31.56518555 52.79858398 C-33.04245117 52.77344727 -33.04245117 52.77344727 -34.54956055 52.74780273 C-35.54213867 52.7387793 -36.5347168 52.72975586 -37.55737305 52.72045898 C-40.01334189 52.6968439 -42.46883223 52.66391073 -44.92456055 52.62280273 C-43.61857315 49.11167447 -42.07752099 46.06870776 -40.0534668 42.91967773 C-39.48426514 42.02966064 -38.91506348 41.13964355 -38.32861328 40.22265625 C-37.72090088 39.28220459 -37.11318848 38.34175293 -36.48706055 37.37280273 C-35.86323486 36.40076904 -35.23940918 35.42873535 -34.59667969 34.42724609 C-32.70990357 31.48988146 -30.81731327 28.55631843 -28.92456055 25.62280273 C-27.85907176 23.9628933 -26.79394007 22.30275458 -25.72924805 20.64233398 C-24.77389957 19.15641207 -23.81819323 17.67072016 -22.86206055 16.18530273 C-22.43417236 15.51917969 -22.00628418 14.85305664 -21.56542969 14.16674805 C-20.75589751 12.91502907 -19.93564171 11.67016363 -19.10351562 10.43334961 C-17.8925087 8.62724208 -17.8925087 8.62724208 -16.86083984 6.65600586 C-12.85207167 -0.18459614 -7.38816553 -0.00567205 0 0 Z " fill="#FE7324" transform="translate(586.924560546875,1182.377197265625)"/>
<path d="M0 0 C19.47 0 38.94 0 59 0 C59 3.96 59 7.92 59 12 C46.79 12 34.58 12 22 12 C22 14.64 22 17.28 22 20 C32.56 20 43.12 20 54 20 C54 23.3 54 26.6 54 30 C43.44 30 32.88 30 22 30 C22 32.64 22 35.28 22 38 C35.2 38 48.4 38 62 38 C62 42.29 62 46.58 62 51 C41.54 51 21.08 51 0 51 C0 34.17 0 17.34 0 0 Z " fill="#FE7425" transform="translate(1177,1184)"/>
<path d="M0 0 C19.47 0 38.94 0 59 0 C59 3.96 59 7.92 59 12 C46.46 12 33.92 12 21 12 C21 14.64 21 17.28 21 20 C31.56 20 42.12 20 53 20 C53 23.3 53 26.6 53 30 C42.44 30 31.88 30 21 30 C21 32.64 21 35.28 21 38 C34.53 38 48.06 38 62 38 C62 42.29 62 46.58 62 51 C41.54 51 21.08 51 0 51 C0 34.17 0 17.34 0 0 Z " fill="#FE7324" transform="translate(1028,1184)"/>
<path d="M0 0 C19.47 0 38.94 0 59 0 C59 3.96 59 7.92 59 12 C46.46 12 33.92 12 21 12 C21 14.64 21 17.28 21 20 C31.56 20 42.12 20 53 20 C53 23.3 53 26.6 53 30 C42.44 30 31.88 30 21 30 C21 32.64 21 35.28 21 38 C34.53 38 48.06 38 62 38 C62 42.29 62 46.58 62 51 C41.54 51 21.08 51 0 51 C0 34.17 0 17.34 0 0 Z " fill="#FE7324" transform="translate(476,1184)"/>
<path d="M0 0 C7.26 0 14.52 0 22 0 C22 12.54 22 25.08 22 38 C34.54 38 47.08 38 60 38 C60 42.29 60 46.58 60 51 C40.2 51 20.4 51 0 51 C0 34.17 0 17.34 0 0 Z " fill="#FE7325" transform="translate(409,1184)"/>
<path d="M0 0 C3.37548805 -0.08122832 6.74900518 -0.14061118 10.125 -0.1875 C11.55199219 -0.22520508 11.55199219 -0.22520508 13.0078125 -0.26367188 C18.46921074 -0.32056144 22.2531332 -0.04470749 27 3 C27.1875 5.875 27.1875 5.875 27 9 C21.4136016 12.7242656 15.11429177 12.12977336 8.625 12.0625 C7.37783203 12.05573242 7.37783203 12.05573242 6.10546875 12.04882812 C4.07028103 12.03713164 2.03513077 12.01919935 0 12 C0 8.04 0 4.08 0 0 Z " fill="#F3E2CF" transform="translate(889,1196)"/>
<path d="M0 0 C3.39604742 -0.0540485 6.79123073 -0.09369798 10.1875 -0.125 C11.14720703 -0.14175781 12.10691406 -0.15851563 13.09570312 -0.17578125 C14.02705078 -0.18222656 14.95839844 -0.18867187 15.91796875 -0.1953125 C16.77156982 -0.20578613 17.6251709 -0.21625977 18.50463867 -0.22705078 C21.37398013 0.03402813 23.45376393 0.65102657 26 2 C26.8125 5.125 26.8125 5.125 27 8 C23.81163634 10.84394166 21.81713746 11.36361896 17.578125 11.29296875 C16.04091797 11.2784668 16.04091797 11.2784668 14.47265625 11.26367188 C13.40917969 11.23853516 12.34570312 11.21339844 11.25 11.1875 C9.63158203 11.16719727 9.63158203 11.16719727 7.98046875 11.14648438 C5.32009879 11.11116973 2.65998587 11.05736391 0 11 C0 7.37 0 3.74 0 0 Z " fill="#F3E7D7" transform="translate(1120,1196)"/>
<path d="M0 0 C17.87773933 -0.42906574 17.87773933 -0.42906574 25 2 C25.66 2.66 26.32 3.32 27 4 C26.8125 6.5 26.8125 6.5 26 9 C22.64880481 11.23413013 21.5822245 11.23847762 17.67578125 11.1953125 C16.13374023 11.18564453 16.13374023 11.18564453 14.56054688 11.17578125 C13.48869141 11.15902344 12.41683594 11.14226562 11.3125 11.125 C10.22904297 11.11597656 9.14558594 11.10695313 8.02929688 11.09765625 C5.35277052 11.07407452 2.67635759 11.03820336 0 11 C0 7.37 0 3.74 0 0 Z " fill="#F3E8D9" transform="translate(655,1196)"/>
<path d="M0 0 C0.66 0 1.32 0 2 0 C3.33592797 2.3110361 4.66884431 4.62371755 6 6.9375 C6.3815625 7.59685547 6.763125 8.25621094 7.15625 8.93554688 C10 13.88671875 10 13.88671875 10 15 C4.39 15 -1.22 15 -7 15 C-5.60854034 10.82562101 -4.49553763 7.80803904 -2.375 4.125 C-1.92898438 3.34382813 -1.48296875 2.56265625 -1.0234375 1.7578125 C-0.68570313 1.17773438 -0.34796875 0.59765625 0 0 Z " fill="#F3E8D8" transform="translate(583,1199)"/>
<path d="M0 0 C6.36 -0.36 6.36 -0.36 9 1.125 C10 3 10 3 10.1875 5.75 C8.43686857 10.5412018 4.96589744 12.94652999 1 16 C3.97 16.33 6.94 16.66 10 17 C10 17.66 10 18.32 10 19 C6.04 19 2.08 19 -2 19 C-0.89212411 13.46062053 -0.89212411 13.46062053 2.5 11.0625 C5.35616511 8.81378105 5.9175468 8.29683153 6.9375 4.625 C6.958125 3.75875 6.97875 2.8925 7 2 C4.03 2.66 1.06 3.32 -2 4 C-1.34 2.68 -0.68 1.36 0 0 Z " fill="#272624" transform="translate(1432,2093)"/>
<path d="M0 0 C0.99 0.33 1.98 0.66 3 1 C1.515 2.485 1.515 2.485 0 4 C2.97 4.33 5.94 4.66 9 5 C9 5.66 9 6.32 9 7 C5.04 7 1.08 7 -3 7 C-2 2 -2 2 0 0 Z " fill="#1B1A19" transform="translate(1433,2105)"/>
<path d="M0 0 C2.31 0 4.62 0 7 0 C6 2 6 2 4.15234375 2.6328125 C3.42144531 2.79523437 2.69054688 2.95765625 1.9375 3.125 C0.83728516 3.37636719 0.83728516 3.37636719 -0.28515625 3.6328125 C-0.85105469 3.75398438 -1.41695312 3.87515625 -2 4 C-1.34 2.68 -0.68 1.36 0 0 Z " fill="#191817" transform="translate(1432,2093)"/>
</svg>
