<?xml version="1.0" encoding="UTF-8"?>
<svg version="1.1" xmlns="http://www.w3.org/2000/svg" width="1587" height="2245">
<path d="M0 0 C523.71 0 1047.42 0 1587 0 C1587 740.85 1587 1481.7 1587 2245 C1063.29 2245 539.58 2245 0 2245 C0 1504.15 0 763.3 0 0 Z " fill="#F3EBDD" transform="translate(0,0)"/>
<path d="M0 0 C0.92558716 0.60303955 0.92558716 0.60303955 1.86987305 1.21826172 C2.5868335 1.67885986 3.30379395 2.13945801 4.04248047 2.61401367 C5.20034058 3.37331177 5.20034058 3.37331177 6.3815918 4.14794922 C8.09202016 5.24900096 9.80298294 6.34922283 11.5144043 7.44873047 C12.41835938 8.03219238 13.32231445 8.6156543 14.25366211 9.21679688 C19.06039987 12.30041168 23.90984611 15.31526529 28.7565918 18.33544922 C30.79962663 19.61138507 32.84259475 20.88742777 34.88549805 22.16357422 C38.97579331 24.71702349 43.06713692 27.2687849 47.15893555 29.81982422 C58.75801352 37.05496683 70.31983267 44.34479763 81.84643555 51.69482422 C97.85803566 61.904096 113.96018869 71.96819477 130.0690918 82.02294922 C142.88071843 90.01963024 155.68784791 98.02242997 168.44799805 106.10107422 C171.70125806 108.16047094 174.95979096 110.21123352 178.22143555 112.25732422 C179.50087036 113.06133667 179.50087036 113.06133667 180.80615234 113.8815918 C182.42505325 114.89873278 184.04493356 115.9143174 185.66601562 116.92797852 C186.40231201 117.39115479 187.1386084 117.85433105 187.8972168 118.33154297 C188.8548291 118.93180298 188.8548291 118.93180298 189.83178711 119.54418945 C190.57009766 120.03218018 191.3084082 120.5201709 192.0690918 121.02294922 C192.63728543 121.34082272 193.20547907 121.65869621 193.79089069 121.98620224 C195.77669765 123.19833407 197.42640543 124.37110024 199.0690918 126.02294922 C199.76407447 128.99548763 199.96708528 130.8837673 199.86376953 133.8425293 C199.86479172 134.6137915 199.8658139 135.38505371 199.86686707 136.1796875 C199.86200561 138.71870795 199.80764304 141.25409188 199.75268555 143.79248047 C199.73962396 145.55651383 199.72966243 147.32057264 199.72267151 149.0846405 C199.69598944 153.71970163 199.62726722 158.35321847 199.54974365 162.9876709 C199.47803675 167.71992095 199.44614419 172.45242144 199.41088867 177.18505859 C199.33589526 186.46503267 199.21648044 195.74386236 199.0690918 205.02294922 C196.53338862 206.45524085 193.99699749 207.88629022 191.46020508 209.31665039 C190.7495137 209.71825127 190.03882233 210.11985214 189.30659485 210.53362274 C183.25683153 213.94270594 177.12531369 217.17119141 170.9440918 220.33544922 C163.05407389 224.40427919 155.21702194 228.54731241 147.4440918 232.83544922 C137.90162957 238.09323484 128.23621567 243.09053414 118.54296875 248.06213379 C109.40571957 252.75120343 100.3460896 257.55131468 91.35424805 262.51513672 C83.82750508 266.65205767 76.20752098 270.59795085 68.5690918 274.52294922 C60.01114715 278.9205317 51.495018 283.37546526 43.0690918 288.02294922 C34.64316231 292.67043499 26.12699612 297.12528366 17.5690918 301.52294922 C8.03238444 306.42380016 -1.43359325 311.43044777 -10.82543945 316.60498047 C-17.6410659 320.34905803 -24.52197315 323.95435428 -31.4309082 327.52294922 C-40.2200225 332.06304828 -48.93085353 336.72223265 -57.59814453 341.49023438 C-65.73129127 345.9489929 -73.95078302 350.23375135 -82.19458008 354.48388672 C-83.17362305 354.98919922 -84.15266602 355.49451172 -85.16137695 356.01513672 C-86.11447754 356.5046582 -87.06757812 356.99417969 -88.04956055 357.49853516 C-90.04372879 358.55357553 -92.01720438 359.64832377 -93.97241211 360.77392578 C-95.43106689 361.61262207 -95.43106689 361.61262207 -96.91918945 362.46826172 C-97.78713135 362.98146973 -98.65507324 363.49467773 -99.54931641 364.0234375 C-101.9309082 365.02294922 -101.9309082 365.02294922 -104.0546875 364.81713867 C-107.23201217 363.47220215 -109.77497041 361.24339868 -112.4309082 359.08544922 C-113.0496582 358.59109375 -113.6684082 358.09673828 -114.3059082 357.58740234 C-119.22518348 353.64089359 -124.05940099 349.59531195 -128.88793945 345.53857422 C-132.08913095 342.89214633 -135.34183459 340.32473587 -138.6184082 337.77294922 C-144.79704691 332.95877433 -150.85134773 328.00434584 -156.88574219 323.01098633 C-160.62472488 319.91814218 -164.37720461 316.84877284 -168.1809082 313.83544922 C-172.57670037 310.34423333 -176.84967896 306.71937583 -181.12426758 303.08203125 C-185.05263549 299.74660281 -189.04622429 296.50756426 -193.08325195 293.30419922 C-203.13928552 285.24833694 -213.02293181 276.97875199 -222.8449707 268.64013672 C-226.09404252 265.88227627 -229.35187653 263.13510641 -232.6184082 260.39794922 C-233.59165039 259.58068359 -234.56489258 258.76341797 -235.56762695 257.92138672 C-237.76956276 256.01549841 -237.76956276 256.01549841 -239.9309082 255.02294922 C-240.33599609 256.31555664 -240.33599609 256.31555664 -240.74926758 257.63427734 C-249.18743077 281.83297675 -263.0972288 306.20830046 -286.6340332 317.71044922 C-292.44897413 320.02540201 -297.7743134 320.12909741 -303.9309082 320.02294922 C-303.32254477 313.98042056 -301.56965838 308.67082129 -299.5559082 302.96044922 C-291.4440613 279.65718553 -291.4440613 279.65718553 -294.9309082 256.02294922 C-296.03047852 256.43287109 -297.13004883 256.84279297 -298.26293945 257.26513672 C-313.67674642 262.92578172 -329.72223908 267.31386194 -345.9309082 262.02294922 C-342.87945895 258.94679187 -339.78946292 255.91621318 -336.6730957 252.90576172 C-313.86998643 231.23470078 -313.86998643 231.23470078 -303.77268982 202.31500244 C-303.75209576 200.79876461 -303.73676849 199.28244973 -303.72558594 197.76611328 C-303.71568634 196.93647568 -303.70578674 196.10683807 -303.69558716 195.25205994 C-303.66404077 192.51426023 -303.63924187 189.77644319 -303.61450195 187.03857422 C-303.5939265 185.1385656 -303.57292987 183.23856151 -303.55152893 181.33856201 C-303.49636933 176.34091859 -303.4469331 171.34323428 -303.39868164 166.34552002 C-303.34842199 161.24446987 -303.29275923 156.14347901 -303.23754883 151.04248047 C-303.130042 141.03602072 -303.02858043 131.02950946 -302.9309082 121.02294922 C-289.35318426 114.70005932 -289.35318426 114.70005932 -282.7355957 112.00732422 C-282.11707733 111.75437592 -281.49855896 111.50142761 -280.86129761 111.24081421 C-279.53516687 110.69861645 -278.20854947 110.15760762 -276.88146973 109.61773682 C-273.16839946 108.10645629 -269.45994864 106.58391059 -265.7512207 105.06201172 C-264.96263672 104.73856781 -264.17405273 104.4151239 -263.36157227 104.08187866 C-253.78280695 100.1483435 -244.2311931 96.15002834 -234.6809082 92.14794922 C-233.77440521 91.76813904 -232.86790222 91.38832886 -231.93392944 90.99700928 C-211.33450305 82.36429047 -190.75079046 73.69421122 -170.1706543 65.015625 C-148.67091675 55.94946236 -127.15587593 46.9216928 -105.60913086 37.96777344 C-102.42072117 36.64267537 -99.23294719 35.31606329 -96.0456543 33.98828125 C-76.41647702 25.81143076 -56.76208987 17.70014689 -37.0559082 9.71044922 C-36.167724 9.34969299 -35.27953979 8.98893677 -34.36444092 8.61724854 C-29.56250191 6.66801086 -24.75593851 4.73149889 -19.93835449 2.82122803 C-18.11480711 2.09607825 -16.29555102 1.36016027 -14.47680664 0.62304688 C-13.51033203 0.24583496 -12.54385742 -0.13137695 -11.5480957 -0.52001953 C-10.36256104 -0.99024536 -10.36256104 -0.99024536 -9.15307617 -1.4699707 C-5.70640686 -2.25647171 -3.12021878 -1.57884885 0 0 Z " fill="#FE7222" transform="translate(903.930908203125,756.97705078125)"/>
<path d="M0 0 C3.8104635 1.90523175 5.99593882 3.67659044 9.0625 6.5625 C13.60598511 10.78166849 18.29201283 14.75508728 23.1171875 18.65234375 C26.28016297 21.2281544 29.39310792 23.8571302 32.5 26.5 C38.27515372 31.40582143 44.12097976 36.21897324 50 41 C55.68370234 45.63993602 61.3568488 50.29223771 67.01733398 54.96044922 C75.31750661 61.80489352 83.64999304 68.60783653 92.00732422 75.38232422 C94.02952301 77.0239671 96.04839838 78.66961516 98.06640625 80.31640625 C104.87274603 85.86709651 111.7123442 91.36399283 118.63891602 96.76391602 C123.34700948 100.45044831 127.95898267 104.24656127 132.5625 108.0625 C139.01163085 113.40255837 145.55437356 118.57008771 152.22021484 123.63818359 C154.97874059 125.74889095 157.71616499 127.88643693 160.4543457 130.0234375 C161.98041335 131.21274131 163.50888894 132.39896199 165.03979492 133.58203125 C168.97512996 136.62454523 172.87211917 139.70132732 176.71875 142.85546875 C177.47961914 143.46737061 178.24048828 144.07927246 179.02441406 144.7097168 C180.47721959 145.87836784 181.917449 147.06287784 183.34277344 148.26489258 C183.99793945 148.78591553 184.65310547 149.30693848 185.328125 149.84375 C185.8943457 150.30974609 186.46056641 150.77574219 187.04394531 151.25585938 C190.13918341 152.43337881 192.01419332 151.25060927 195 150 C197.17771287 148.99555433 199.33705411 147.95069427 201.48046875 146.875 C202.08595551 146.57223145 202.69144226 146.26946289 203.3152771 145.95751953 C205.27485349 144.97593247 207.23128134 143.98825962 209.1875 143 C210.55519804 142.3123824 211.92295568 141.62488332 213.29077148 140.9375 C221.14557794 136.98285781 228.96925082 132.97459733 236.73388672 128.84521484 C241.41513267 126.35579549 246.11345462 123.90206596 250.828125 121.4765625 C251.43352615 121.16503738 252.03892731 120.85351227 252.66267395 120.532547 C253.27712875 120.21637924 253.89158356 119.90021149 254.5246582 119.57446289 C265.24827427 114.05651262 275.91208785 108.45681177 286.47192383 102.62939453 C295.07288002 97.90800857 303.7977282 93.43750226 312.52722168 88.96026611 C320.78557613 84.72222263 328.99721238 80.42279786 337.125 75.9375 C345.5744471 71.27557087 354.10962732 66.79447128 362.6875 62.375 C363.31399445 62.05216034 363.94048889 61.72932068 364.58596802 61.396698 C367.04855877 60.12794566 369.51130116 58.8594884 371.97428894 57.59150696 C382.10728151 52.37273905 392.1876173 47.05699178 402.22265625 41.65234375 C416.45782578 33.98835647 430.75585702 26.46820891 445.14331055 19.09375 C446.51223745 18.39198643 447.88113437 17.69016434 449.25 16.98828125 C449.91300613 16.64834137 450.57601227 16.30840149 451.2591095 15.9581604 C458.21826042 12.38421415 465.13983718 8.73830568 472.03686523 5.04589844 C472.80716064 4.63758789 473.57745605 4.22927734 474.37109375 3.80859375 C475.03036865 3.45595459 475.68964355 3.10331543 476.36889648 2.73999023 C478 2 478 2 480 2 C480 23.12 480 44.24 480 66 C469.67452299 71.80808082 459.34732065 77.53564607 448.875 83.0625 C446.78752804 84.16720394 444.70045031 85.2726503 442.61338806 86.37812805 C441.1918494 87.13103516 439.77018805 87.88371069 438.34840393 88.63615417 C431.58897851 92.21420598 424.84170399 95.81485357 418.09579468 99.41830444 C401.62370146 108.21583682 385.10092473 116.91172003 368.54077148 125.54223633 C362.56119272 128.6596067 356.58945433 131.79130158 350.625 134.9375 C342.18160268 139.39052462 333.71266468 143.79370945 325.24072266 148.19213867 C319.14894439 151.35665668 313.06830437 154.54074796 307 157.75 C298.36493541 162.31141762 289.68364288 166.78203229 281 171.25 C279.93540558 171.79776596 279.93540558 171.79776596 278.8493042 172.3565979 C277.78380341 172.90481705 277.78380341 172.90481705 276.69677734 173.46411133 C245.21590518 189.60678353 245.21590518 189.60678353 213.9609375 206.1796875 C206.0983335 210.42713108 198.16744951 214.36390106 190 218 C189.40574219 217.45472656 188.81148437 216.90945313 188.19921875 216.34765625 C182.94232529 211.56494603 177.57506325 206.98505825 172.05078125 202.515625 C168.47943376 199.57074948 164.9878836 196.54279913 161.5 193.5 C156.3416034 189.00238974 151.11842371 184.61004114 145.80078125 180.30078125 C141.32287264 176.62227613 136.94400705 172.82960344 132.55078125 169.05078125 C124.47483814 162.10489632 116.3381286 155.23806671 108.078125 148.51171875 C104.20819872 145.3538982 100.35415572 142.17703445 96.5 139 C84.7068696 129.28362302 72.86362416 119.63010277 61 110 C61.54691338 105.49210787 63.29994586 102.69751363 65.875 99 C68.37053236 95.39022626 70.78483609 91.78946279 73 88 C66.46282572 81.8963556 59.86354157 75.97149844 52.890625 70.36328125 C50.25180932 68.20587113 47.67527318 65.99597532 45.10620117 63.75708008 C30.75123297 49.68150367 30.75123297 49.68150367 13.8125 40.5625 C9.541711 41.22684496 6.30395761 43.25288918 3 46 C1.44238231 48.62459397 1.44238231 48.62459397 1 51 C0.67 51 0.34 51 0 51 C0 34.17 0 17.34 0 0 Z " fill="#F3EBDC" transform="translate(610,888)"/>
<path d="M0 0 C4.55315922 -0.09958121 9.10567152 -0.17179985 13.65966797 -0.21972656 C15.20567887 -0.23972503 16.75161527 -0.26693331 18.29736328 -0.30175781 C34.32321118 -0.65351948 34.32321118 -0.65351948 41 4 C44.07171922 7.37889114 44.90842066 9.42305013 45.625 13.9375 C45.40549563 18.16499154 43.53441575 20.55139919 40.80078125 23.65234375 C38.58287201 25.31216737 36.71792847 25.63421406 34 26 C35.5766796 28.73306147 37.16252391 31.46069767 38.75 34.1875 C39.1934375 34.95642578 39.636875 35.72535156 40.09375 36.51757812 C43.21591516 41.86658166 46.48290497 46.70875972 51 51 C45.60586155 52.30871909 40.22542558 53.3565187 35 51 C29.26327365 45.2770473 25.21986573 37.38527416 22 30 C22 29.34 22 28.68 22 28 C21.01 28 20.02 28 19 28 C19.33 34.27 19.66 40.54 20 47 C22.31 47.99 24.62 48.98 27 50 C27 50.33 27 50.66 27 51 C18.09 51 9.18 51 0 51 C4 49 4 49 6 49 C6 33.49 6 17.98 6 2 C3.03 1.505 3.03 1.505 0 1 C0 0.67 0 0.34 0 0 Z " fill="#FE7425" transform="translate(712,1181)"/>
<path d="M0 0 C4.41077344 -0.07471341 8.82120184 -0.12886513 13.23242188 -0.16479492 C14.72988307 -0.17978888 16.22730105 -0.20019105 17.72460938 -0.22631836 C35.95852018 -0.53629484 35.95852018 -0.53629484 43 5.625 C45.55724578 9.94035225 46.2045836 13.10531873 45 18 C43.40507576 20.83600768 41.6349473 23.0795178 39 25 C36.29296875 25.6875 36.29296875 25.6875 34 26 C35.71717068 28.90310435 37.45083119 31.79602445 39.1875 34.6875 C39.67025391 35.50412109 40.15300781 36.32074219 40.65039062 37.16210938 C43.39852375 41.71773946 46.10612163 45.38277374 50 49 C50.33 49.66 50.66 50.32 51 51 C37.93575858 52.5132326 37.93575858 52.5132326 33.69140625 49.1953125 C31.86049719 46.54831695 30.41994638 43.88846988 29 41 C27.76345213 38.80486775 26.51347037 36.61724743 25.25 34.4375 C24.69828125 33.42558594 24.1465625 32.41367188 23.578125 31.37109375 C22.15832989 28.711365 22.15832989 28.711365 19 28 C19.33 34.27 19.66 40.54 20 47 C22.31 47.99 24.62 48.98 27 50 C27 50.33 27 50.66 27 51 C18.09 51 9.18 51 0 51 C2 50 4 49 6 48 C6 33.15 6 18.3 6 3 C4.02 2.34 2.04 1.68 0 1 C0 0.67 0 0.34 0 0 Z " fill="#FE7425" transform="translate(1029,1181)"/>
<path d="M0 0 C8.58 0 17.16 0 26 0 C24.02 0.99 24.02 0.99 22 2 C20.45049732 3.54950268 20.78344807 5.09990594 20.68359375 7.25390625 C20.64548584 8.0229126 20.60737793 8.79191895 20.56811523 9.58422852 C20.50346069 11.0584729 20.50346069 11.0584729 20.4375 12.5625 C20.293125 15.676875 20.14875 18.79125 20 22 C26.93 22 33.86 22 41 22 C40.67 15.4 40.34 8.8 40 2 C38.02 1.67 36.04 1.34 34 1 C34 0.67 34 0.34 34 0 C42.58 0 51.16 0 60 0 C60 0.33 60 0.66 60 1 C58.02 1.66 56.04 2.32 54 3 C54 18.18 54 33.36 54 49 C55.65 49 57.3 49 59 49 C59.33 49.66 59.66 50.32 60 51 C51.42 51 42.84 51 34 51 C35 49 35 49 40 47 C40.33 39.74 40.66 32.48 41 25 C33.74 25 26.48 25 19 25 C19.33 32.26 19.66 39.52 20 47 C21.98 47.66 23.96 48.32 26 49 C26 49.66 26 50.32 26 51 C18.08 51 10.16 51 2 51 C2 50.34 2 49.68 2 49 C3.32 48.34 4.64 47.68 6 47 C6 32.48 6 17.96 6 3 C4.02 2.34 2.04 1.68 0 1 C0 0.67 0 0.34 0 0 Z " fill="#FE7527" transform="translate(917,1181)"/>
<path d="M0 0 C4.55318701 -0.07468636 9.10600998 -0.12885256 13.65966797 -0.16479492 C15.20562968 -0.1797933 16.75154948 -0.20019887 18.29736328 -0.22631836 C36.13418363 -0.51995226 36.13418363 -0.51995226 43.9375 5.125 C46.72152866 9.00576723 47.40236477 12.25544876 47 17 C45.00186961 21.60438742 42.18820391 24.24895926 37.703125 26.3203125 C31.63646898 27.84574335 25.20403995 27.27105029 19 27 C19.13857841 30.12536637 19.28709569 33.25018217 19.4375 36.375 C19.47681641 37.26445313 19.51613281 38.15390625 19.55664062 39.0703125 C19.59853516 39.92109375 19.64042969 40.771875 19.68359375 41.6484375 C19.72025146 42.43395996 19.75690918 43.21948242 19.79467773 44.02880859 C19.890891 46.07523496 19.890891 46.07523496 21 48 C23.52733235 48.65555119 23.52733235 48.65555119 26 49 C26 49.66 26 50.32 26 51 C17.42 51 8.84 51 0 51 C2 50 4 49 6 48 C6 33.15 6 18.3 6 3 C4.02 2.34 2.04 1.68 0 1 C0 0.67 0 0.34 0 0 Z " fill="#FE7526" transform="translate(868,1181)"/>
<path d="M0 0 C14.19 0 28.38 0 43 0 C43 4.62 43 9.24 43 14 C42.34 14 41.68 14 41 14 C40.62875 12.9275 40.2575 11.855 39.875 10.75 C38.03013397 6.60743719 36.24219868 4.90167527 32 3 C27.64144424 2.38772669 23.4098939 2.17999567 19 2 C19 9.26 19 16.52 19 24 C26.65436954 22.04497329 26.65436954 22.04497329 28.4375 18.73828125 C28.623125 17.93777344 28.80875 17.13726563 29 16.3125 C29.309375 15.10013672 29.309375 15.10013672 29.625 13.86328125 C29.74875 13.24839844 29.8725 12.63351562 30 12 C30.66 12 31.32 12 32 12 C32 20.58 32 29.16 32 38 C31.34 38 30.68 38 30 38 C29.87625 37.38511719 29.7525 36.77023437 29.625 36.13671875 C29.41875 35.32847656 29.2125 34.52023437 29 33.6875 C28.814375 32.88699219 28.62875 32.08648438 28.4375 31.26171875 C26.21442372 27.76399819 22.8549055 27.12789604 19 26 C19.13857841 29.12536637 19.28709569 32.25018217 19.4375 35.375 C19.47681641 36.26445313 19.51613281 37.15390625 19.55664062 38.0703125 C19.59853516 38.92109375 19.64042969 39.771875 19.68359375 40.6484375 C19.72025146 41.43395996 19.75690918 42.21948242 19.79467773 43.02880859 C19.890891 45.07523496 19.890891 45.07523496 21 47 C23.22855574 47.0814222 25.45797655 47.13938079 27.6875 47.1875 C28.92886719 47.22230469 30.17023438 47.25710938 31.44921875 47.29296875 C35.2886806 46.97618147 37.01884149 46.39332444 40 44 C41.6337717 41.77706054 41.6337717 41.77706054 42.8125 39.3125 C43.23144531 38.50425781 43.65039062 37.69601562 44.08203125 36.86328125 C44.38496094 36.24839844 44.68789062 35.63351562 45 35 C45.66 35 46.32 35 47 35 C46.34 40.28 45.68 45.56 45 51 C30.15 51 15.3 51 0 51 C2 50 4 49 6 48 C6 33.15 6 18.3 6 3 C4.02 2.34 2.04 1.68 0 1 C0 0.67 0 0.34 0 0 Z " fill="#FE7528" transform="translate(1083,1181)"/>
<path d="M0 0 C14.19 0 28.38 0 43 0 C43 4.62 43 9.24 43 14 C41.64737514 11.97106271 40.3144712 9.92886125 39 7.875 C37.30925867 4.95510761 37.30925867 4.95510761 35 4 C32.45213572 3.76811572 29.9274885 3.58133625 27.375 3.4375 C24.94125 3.293125 22.5075 3.14875 20 3 C20 9.6 20 16.2 20 23 C26.71827458 21.86246621 26.71827458 21.86246621 28.55859375 18.8359375 C28.99365234 17.61777344 28.99365234 17.61777344 29.4375 16.375 C29.89962891 15.14910156 29.89962891 15.14910156 30.37109375 13.8984375 C30.68240234 12.95871094 30.68240234 12.95871094 31 12 C31.33 12 31.66 12 32 12 C32 20.58 32 29.16 32 38 C30.33094759 34.66189518 29.1258614 31.53842155 28 28 C25.36 27.67 22.72 27.34 20 27 C20.13822199 30.14621682 20.28685084 33.29185566 20.4375 36.4375 C20.47681641 37.33533203 20.51613281 38.23316406 20.55664062 39.15820312 C20.59853516 40.01220703 20.64042969 40.86621094 20.68359375 41.74609375 C20.72025146 42.53685303 20.75690918 43.3276123 20.79467773 44.14233398 C20.80563257 46.01401441 20.80563257 46.01401441 22 47 C31.27902341 48.11857909 31.27902341 48.11857909 39.625 44.9375 C42.21955447 41.72844578 44.12795124 38.67209564 46 35 C47 39 47 39 45 51 C30.15 51 15.3 51 0 51 C0 50.67 0 50.34 0 50 C0.969375 49.690625 1.93875 49.38125 2.9375 49.0625 C5.84065792 48.30476658 5.84065792 48.30476658 7 47 C7.10301414 45.66006384 7.13848453 44.31482035 7.14526367 42.97094727 C7.15164352 42.11658585 7.15802338 41.26222443 7.16459656 40.38197327 C7.16570938 39.45283615 7.1668222 38.52369904 7.16796875 37.56640625 C7.17129715 36.61813461 7.17462555 35.66986298 7.17805481 34.69285583 C7.18312819 32.68285611 7.18546301 30.67284792 7.18530273 28.6628418 C7.18748822 25.57912381 7.20563683 22.49576394 7.22460938 19.41210938 C7.22754334 17.4635429 7.22952812 15.51497471 7.23046875 13.56640625 C7.23765427 12.63929337 7.24483978 11.71218048 7.25224304 10.75697327 C7.24916641 9.89945969 7.24608978 9.04194611 7.24291992 8.15844727 C7.24434494 7.40201431 7.24576996 6.64558136 7.24723816 5.8662262 C7.15994767 3.75453716 7.15994767 3.75453716 5 2 C2.42938689 1.35232207 2.42938689 1.35232207 0 1 C0 0.67 0 0.34 0 0 Z " fill="#FE7527" transform="translate(979,1181)"/>
<path d="M0 0 C14.19 0 28.38 0 43 0 C43 4.62 43 9.24 43 14 C41.64737514 11.97106271 40.3144712 9.92886125 39 7.875 C37.30925867 4.95510761 37.30925867 4.95510761 35 4 C32.45213572 3.76811572 29.9274885 3.58133625 27.375 3.4375 C24.94125 3.293125 22.5075 3.14875 20 3 C20 9.6 20 16.2 20 23 C26.71827458 21.86246621 26.71827458 21.86246621 28.55859375 18.8359375 C28.99365234 17.61777344 28.99365234 17.61777344 29.4375 16.375 C29.89962891 15.14910156 29.89962891 15.14910156 30.37109375 13.8984375 C30.68240234 12.95871094 30.68240234 12.95871094 31 12 C31.33 12 31.66 12 32 12 C32 20.58 32 29.16 32 38 C30.33094759 34.66189518 29.1258614 31.53842155 28 28 C25.36 27.67 22.72 27.34 20 27 C20.13822199 30.14621682 20.28685084 33.29185566 20.4375 36.4375 C20.47681641 37.33533203 20.51613281 38.23316406 20.55664062 39.15820312 C20.59853516 40.01220703 20.64042969 40.86621094 20.68359375 41.74609375 C20.72025146 42.53685303 20.75690918 43.3276123 20.79467773 44.14233398 C20.80563257 46.01401441 20.80563257 46.01401441 22 47 C31.27902341 48.11857909 31.27902341 48.11857909 39.625 44.9375 C42.21955447 41.72844578 44.12795124 38.67209564 46 35 C47 39 47 39 45 51 C30.15 51 15.3 51 0 51 C0 50.67 0 50.34 0 50 C0.969375 49.690625 1.93875 49.38125 2.9375 49.0625 C5.84065792 48.30476658 5.84065792 48.30476658 7 47 C7.10301414 45.66006384 7.13848453 44.31482035 7.14526367 42.97094727 C7.15164352 42.11658585 7.15802338 41.26222443 7.16459656 40.38197327 C7.16570938 39.45283615 7.1668222 38.52369904 7.16796875 37.56640625 C7.17129715 36.61813461 7.17462555 35.66986298 7.17805481 34.69285583 C7.18312819 32.68285611 7.18546301 30.67284792 7.18530273 28.6628418 C7.18748822 25.57912381 7.20563683 22.49576394 7.22460938 19.41210938 C7.22754334 17.4635429 7.22952812 15.51497471 7.23046875 13.56640625 C7.23765427 12.63929337 7.24483978 11.71218048 7.25224304 10.75697327 C7.24916641 9.89945969 7.24608978 9.04194611 7.24291992 8.15844727 C7.24434494 7.40201431 7.24576996 6.64558136 7.24723816 5.8662262 C7.15994767 3.75453716 7.15994767 3.75453716 5 2 C2.42938689 1.35232207 2.42938689 1.35232207 0 1 C0 0.67 0 0.34 0 0 Z " fill="#FE7527" transform="translate(608,1181)"/>
<path d="M0 0 C1.10085938 -0.00515625 2.20171875 -0.0103125 3.3359375 -0.015625 C6.73281869 0.25870745 9.43423503 1.09300874 12.625 2.25 C15.29334966 2.58498301 15.29334966 2.58498301 17.625 2.25 C18.285 1.59 18.945 0.93 19.625 0.25 C19.625 5.53 19.625 10.81 19.625 16.25 C17.625 15.25 17.625 15.25 15.9375 11.9375 C13.70100257 7.97057389 11.01638048 5.58266757 6.625 4.25 C1.77551263 3.77522501 -2.73125805 3.70208602 -7.375 5.25 C-7.375 8.22 -7.375 11.19 -7.375 14.25 C-1.89871841 17.15502522 3.51064462 19.59839728 9.375 21.625 C15.83516397 24.02470714 19.55165786 27.10331572 22.625 33.25 C23.19925085 37.95697417 23.08054552 41.37144792 20.875 45.625 C16.83149011 50.3424282 12.80444247 52.97940915 6.50390625 53.515625 C4.86228516 53.50789063 4.86228516 53.50789063 3.1875 53.5 C2.09566406 53.50515625 1.00382813 53.5103125 -0.12109375 53.515625 C-3.49487874 53.24021398 -6.19433392 52.36278261 -9.375 51.25 C-12.25985421 51.58544816 -14.6160496 52.33034987 -17.375 53.25 C-17.375 46.98 -17.375 40.71 -17.375 34.25 C-16.715 34.25 -16.055 34.25 -15.375 34.25 C-15.024375 35.44625 -14.67375 36.6425 -14.3125 37.875 C-12.32599586 43.25193189 -8.45775858 46.70862071 -3.375 49.25 C-1.41862486 49.3469632 0.54122931 49.37978917 2.5 49.375 C3.54929687 49.37757812 4.59859375 49.38015625 5.6796875 49.3828125 C8.18176685 49.26998664 10.24256923 48.97508762 12.625 48.25 C12.893125 47.033125 13.16125 45.81625 13.4375 44.5625 C13.58832031 43.87800781 13.73914063 43.19351562 13.89453125 42.48828125 C13.4461771 38.76499241 11.50292896 37.54436906 8.625 35.25 C4.75995579 33.34693913 0.71100271 31.92407367 -3.33789062 30.46484375 C-9.13151664 28.22067241 -13.12844142 25.6707211 -16.375 20.25 C-17.64657291 15.71223001 -17.4731858 11.22462254 -15.15625 7.05859375 C-10.72854563 1.64821009 -7.02475655 -0.03274945 0 0 Z " fill="#FE7527" transform="translate(841.375,1179.75)"/>
<path d="M0 0 C0.66 0 1.32 0 2 0 C2.21884354 0.54013229 2.43768707 1.08026459 2.66316223 1.63676453 C4.9456721 7.26793206 7.23397815 12.89671872 9.52563477 18.52416992 C10.3796579 20.6235017 11.23221097 22.72343214 12.08325195 24.82397461 C13.30812987 27.8464842 14.53831184 30.86678776 15.76953125 33.88671875 C16.14777542 34.82335861 16.52601959 35.75999847 16.91572571 36.72502136 C19.45592187 43.12882071 19.45592187 43.12882071 23 49 C23.99 49.33 24.98 49.66 26 50 C26 50.66 26 51.32 26 52 C18.08 52 10.16 52 2 52 C6 50 6 50 8 50 C7.01 46.04 6.02 42.08 5 38 C-3.415 38.495 -3.415 38.495 -12 39 C-13.9955516 42.99110319 -14.19546065 44.69986566 -14 49 C-12.35 49.33 -10.7 49.66 -9 50 C-9 50.66 -9 51.32 -9 52 C-14.28 52 -19.56 52 -25 52 C-25 51.34 -25 50.68 -25 50 C-24.22817383 49.5666333 -23.45634766 49.1332666 -22.66113281 48.68676758 C-19.54105568 46.70909667 -18.84471811 45.37350455 -17.421875 42.01171875 C-16.98721924 41.00488037 -16.55256348 39.99804199 -16.10473633 38.96069336 C-15.65767334 37.88053955 -15.21061035 36.80038574 -14.75 35.6875 C-14.27908936 34.58349854 -13.80817871 33.47949707 -13.32299805 32.34204102 C-11.86281745 28.90237901 -10.42776035 25.45323333 -9 22 C-8.54383301 20.90107422 -8.08766602 19.80214844 -7.61767578 18.66992188 C-5.04525085 12.45990522 -2.5046361 6.2376606 0 0 Z " fill="#FE772A" transform="translate(683,1180)"/>
<path d="M0 0 C14.71694411 -1.91320273 14.71694411 -1.91320273 19.88525391 1.09863281 C23.35372825 4.03326106 26.06220728 7.57111624 28.71679688 11.23828125 C30.62848523 13.86285186 32.7289838 16.32346722 34.8125 18.8125 C35.45832031 19.62332031 36.10414063 20.43414063 36.76953125 21.26953125 C39.75645897 24.92603296 42.87545608 28.46098139 46 32 C46.08690253 27.56262288 46.14035926 23.12546366 46.1875 18.6875 C46.21263672 17.42486328 46.23777344 16.16222656 46.26367188 14.86132812 C46.27817383 13.04858398 46.27817383 13.04858398 46.29296875 11.19921875 C46.31653442 9.52605591 46.31653442 9.52605591 46.34057617 7.8190918 C46.2330319 5.02485587 46.2330319 5.02485587 44.73168945 3.23754883 C42.71087263 1.72526995 42.71087263 1.72526995 39 0 C44.61 0 50.22 0 56 0 C55.01 0.66 54.02 1.32 53 2 C50.91346056 3.67636813 50.09606325 4.48320096 49.60127258 7.14506531 C49.59016953 7.97335342 49.57906647 8.80164154 49.56762695 9.6550293 C49.54783279 10.59577805 49.52803864 11.53652679 49.50764465 12.50578308 C49.49805977 14.02465874 49.49805977 14.02465874 49.48828125 15.57421875 C49.47033005 16.61318802 49.45237885 17.65215729 49.43388367 18.72261047 C49.37965957 22.04419891 49.34584572 25.36564266 49.3125 28.6875 C49.27933766 30.93817123 49.24484903 33.18882334 49.20898438 35.43945312 C49.12392632 40.95950568 49.05562777 46.47957669 49 52 C42.43135726 46.58102247 42.43135726 46.58102247 39.6875 43.3125 C37.00263164 40.16533642 34.27556397 37.0677286 31.5 34 C25.95871564 27.8502976 20.51598867 21.66055911 15.28125 15.24609375 C14.47751953 14.26181396 13.67378906 13.27753418 12.84570312 12.26342773 C12.23662109 11.51649658 11.62753906 10.76956543 11 10 C10.87644273 15.07193078 10.78568385 20.14298696 10.7253418 25.21606445 C10.70018995 26.94180559 10.66606381 28.66744012 10.62280273 30.39282227 C10.56217567 32.87282581 10.53379899 35.35142222 10.51171875 37.83203125 C10.48591232 38.60400345 10.4601059 39.37597565 10.43351746 40.17134094 C10.37606047 42.61003571 10.37606047 42.61003571 11 46 C13.30787164 47.97476862 13.30787164 47.97476862 16 49 C16.66 49.66 17.32 50.32 18 51 C12.06 51 6.12 51 0 51 C1.3899131 48.22017379 3.18658353 48.12536659 6 47 C8.52597695 41.9480461 7.31315699 34.02921798 7.35009766 28.40625 C7.3666683 26.55553624 7.39397308 24.70488677 7.43212891 22.85449219 C7.48685916 20.18651127 7.50876334 17.52002892 7.5234375 14.8515625 C7.54610687 14.02540436 7.56877625 13.19924622 7.59213257 12.34805298 C7.60235402 7.4088396 7.60235402 7.4088396 4.59228516 3.57177734 C3.73683105 3.05309082 2.88137695 2.5344043 2 2 C1.34 1.34 0.68 0.68 0 0 Z " fill="#FE7425" transform="translate(765,1181)"/>
<path d="M0 0 C9.24 0 18.48 0 28 0 C28 0.33 28 0.66 28 1 C25.69 1.66 23.38 2.32 21 3 C21 17.52 21 32.04 21 47 C33.73108186 47.86657824 33.73108186 47.86657824 40 45 C41.29042763 42.73398135 41.29042763 42.73398135 42 40 C42.37125 38.906875 42.7425 37.81375 43.125 36.6875 C43.41375 35.800625 43.7025 34.91375 44 34 C44.66 34 45.32 34 46 34 C46.02777514 35.33320679 46.04673341 36.66659713 46.0625 38 C46.07410156 38.7425 46.08570313 39.485 46.09765625 40.25 C45.96982615 43.84969573 45.44676874 47.42585009 45 51 C29.82 51 14.64 51 -1 51 C-0.67 50.34 -0.34 49.68 0 49 C2.97 48.505 2.97 48.505 6 48 C6 33.15 6 18.3 6 3 C4.02 2.34 2.04 1.68 0 1 C0 0.67 0 0.34 0 0 Z " fill="#FE792D" transform="translate(559,1181)"/>
<path d="M0 0 C8.39285714 0 8.39285714 0 13 3 C15.61116879 7.16543593 15.56279077 11.22480555 15 16 C13.37599816 19.63467079 12.33886956 20.77408696 9 23 C6.03 23 3.06 23 0 23 C0 15.41 0 7.82 0 0 Z " fill="#F3E3D0" transform="translate(887,1183)"/>
<path d="M0 0 C6.19494292 0 7.40988041 0.3487685 12 4 C14.69657104 8.04485657 14.5422677 11.25307196 14 16 C12.7530291 18.93038162 11.77654345 20.41759241 9.25 22.3125 C7 23 7 23 0 23 C0 15.41 0 7.82 0 0 Z " fill="#F3E5D4" transform="translate(1048,1183)"/>
<path d="M0 0 C8 0 8 0 10.9375 2.375 C14.16145205 6.47821171 14.34903314 8.76450289 14 14 C12.80874943 17.156814 11.91864736 19.27820564 9.25 21.375 C7 22 7 22 0 22 C0 14.74 0 7.48 0 0 Z " fill="#F3E9D9" transform="translate(731,1184)"/>
<path d="M0 0 C0.66 0 1.32 0 2 0 C2.350625 1.19625 2.70125 2.3925 3.0625 3.625 C5.04900414 9.00193189 8.91724142 12.45862071 14 15 C16.52820185 15.23417307 19.05487703 15.38156896 21.58984375 15.5234375 C24.34301736 16.06782515 25.26098199 16.85348932 27 19 C24.95863605 19.05451714 22.91684144 19.09302485 20.875 19.125 C19.73804688 19.14820313 18.60109375 19.17140625 17.4296875 19.1953125 C13.93472188 18.99628257 11.27870111 18.16461708 8 17 C5.11514579 17.33544816 2.7589504 18.08034987 0 19 C0 12.73 0 6.46 0 0 Z " fill="#FD7E35" transform="translate(824,1214)"/>
<path d="M0 0 C1.97885999 2.96828999 3.25864997 5.77447054 4.625 9.0625 C5.07101562 10.12597656 5.51703125 11.18945312 5.9765625 12.28515625 C7 15 7 15 7 17 C2.38 17 -2.24 17 -7 17 C-5.60863728 12.82591183 -4.20818227 9.08081438 -2.375 5.125 C-1.92898438 4.15820312 -1.48296875 3.19140625 -1.0234375 2.1953125 C-0.68570313 1.47085937 -0.34796875 0.74640625 0 0 Z " fill="#F3E3D0" transform="translate(679,1198)"/>
<path d="M0 0 C3.375 -0.125 3.375 -0.125 7 0 C7.66 0.66 8.32 1.32 9 2 C8.835 3.134375 8.67 4.26875 8.5 5.4375 C7.58389695 9.09622069 7.58389695 9.09622069 10 12 C9.6758631 15.32240324 9.39223697 16.60776303 7 19 C0.79487179 19.56410256 0.79487179 19.56410256 -1.9375 17.625 C-3 16 -3 16 -3 14 C-2.01 14.33 -1.02 14.66 0 15 C0 15.66 0 16.32 0 17 C1.98 16.67 3.96 16.34 6 16 C6.33 14.35 6.66 12.7 7 11 C4.03 10.505 4.03 10.505 1 10 C1 9.34 1 8.68 1 8 C2.32 7.67 3.64 7.34 5 7 C5.33 5.35 5.66 3.7 6 2 C4.02 2 2.04 2 0 2 C0 2.66 0 3.32 0 4 C-0.66 4 -1.32 4 -2 4 C-1.34 2.68 -0.68 1.36 0 0 Z " fill="#353330" transform="translate(1433,2093)"/>
<path d="M0 0 C0.625 1.875 0.625 1.875 1 4 C-1 6 -1 6 -4.4375 6.3125 C-8 6 -8 6 -9.9375 4.625 C-11 3 -11 3 -11 1 C-10.01 1.33 -9.02 1.66 -8 2 C-8 2.66 -8 3.32 -8 4 C-5.64828869 3.40138258 -3.3140622 2.73075648 -1 2 C-0.67 1.34 -0.34 0.68 0 0 Z " fill="#191917" transform="translate(1441,2106)"/>
<path d="M0 0 C0.95465783 2.16967689 1.14401212 3.56328793 0.3984375 5.82421875 C-0.35870385 7.5684743 -1.17609198 9.28627131 -2 11 C-2.99 11 -3.98 11 -5 11 C-4.39102647 7.44765442 -3.54266151 4.2668126 -2 1 C-1.34 0.67 -0.68 0.34 0 0 Z " fill="#FD7E35" transform="translate(677,1198)"/>
<path d="M0 0 C3.375 -0.125 3.375 -0.125 7 0 C9 2 9 2 9 6 C8.34 6 7.68 6 7 6 C6.67 5.01 6.34 4.02 6 3 C3.03 2.505 3.03 2.505 0 2 C0 2.66 0 3.32 0 4 C-0.66 4 -1.32 4 -2 4 C-1.34 2.68 -0.68 1.36 0 0 Z " fill="#1E1D1C" transform="translate(1433,2093)"/>
</svg>
